Coordinates
version=1
nRows=19
nColumns=24
inDegrees=yes

Units are S.I. units (second, meters, Newtons, ...)
Angles are in degrees.

endheader
time	pelvis_tilt	pelvis_list	pelvis_rotation	pelvis_tx	pelvis_ty	pelvis_tz	hip_flexion_r	hip_adduction_r	hip_rotation_r	knee_angle_r	ankle_angle_r	subtalar_angle_r	mtp_angle_r	hip_flexion_l	hip_adduction_l	hip_rotation_l	knee_angle_l	ankle_angle_l	subtalar_angle_l	mtp_angle_l	lumbar_extension	lumbar_bending	lumbar_rotation
      0.93750000	     -6.26849477	     -1.76601866	     -4.16961369	     -0.33280795	      0.99644945	      0.32766285	     10.11589201	     10.67457032	      4.72857415	     -9.01950087	     -7.87778574	      1.32717567	    -45.75741363	     15.15751810	     -3.08905336	     -5.59444990	    -49.57748461	    -14.00036068	    -22.53913867	    -28.50802897	     21.83234093	      2.18541113	      5.86893900
      0.94166667	     -6.25977619	     -1.66187321	     -4.25342692	     -0.32777008	      0.99687382	      0.32796562	      9.67970110	     10.56328459	      4.90096157	     -8.85569285	     -7.73976308	      1.33396356	    -45.75757293	     15.73343151	     -2.95588308	     -5.34850415	    -49.31370446	    -13.59100019	    -23.00844223	    -28.53560421	     21.81612864	      2.04784556	      5.88426205
      0.94583333	     -6.25314076	     -1.56745228	     -4.34273512	     -0.32276939	      0.99726380	      0.32824635	      9.24597034	     10.45961941	      5.06652073	     -8.69086760	     -7.59281883	      1.34414166	    -45.75841967	     16.30735310	     -2.83475555	     -5.10448762	    -49.02744123	    -13.21347364	    -23.45823904	    -28.57075249	     21.79696935	      1.93164342	      5.92948660
      0.95000000	     -6.25613199	     -1.47817178	     -4.43563146	     -0.31780305	      0.99760068	      0.32850059	      8.82496339	     10.35671463	      5.22056991	     -8.52363003	     -7.44112046	      1.36892084	    -45.76019099	     16.88802659	     -2.71810121	     -4.85576329	    -48.71600718	    -12.88630949	    -23.86244066	    -28.61432860	     21.77749903	      1.83306574	      6.00055180
      0.95416667	     -6.27055631	     -1.39620245	     -4.52308161	     -0.31285958	      0.99789258	      0.32875158	      8.41126873	     10.25862090	      5.37402875	     -8.34488255	     -7.30156180	      1.40094276	    -45.76248028	     17.47626968	     -2.61276649	     -4.58622036	    -48.37726237	    -12.62249042	    -24.18067771	    -28.65708946	     21.76868273	      1.74586592	      6.08607420
      0.95833333	     -6.29554605	     -1.30950380	     -4.63832871	     -0.30797046	      0.99813794	      0.32893564	      8.02595731	     10.14721559	      5.47429479	     -8.20542391	     -7.08132122	      1.48325643	    -45.77082996	     18.06691777	     -2.49701238	     -4.34439142	    -48.01819216	    -12.32650175	    -24.58757030	    -28.75814286	     21.76615256	      1.70715664	      6.24485540
      0.96250000	     -6.32604695	     -1.25594309	     -4.70840469	     -0.30308707	      0.99832474	      0.32914935	      7.61763428	     10.07577056	      5.64963047	     -7.98836916	     -6.98724488	      1.51971684	    -45.77462178	     18.66841719	     -2.42509112	     -4.03077585	    -47.63336919	    -12.19067767	    -24.72170831	    -28.79743172	     21.76175964	      1.64005279	      6.32993438
      0.96666667	     -6.36073706	     -1.20458587	     -4.78178134	     -0.29821433	      0.99847631	      0.32931503	      7.21432839	      9.99957944	      5.79552210	     -7.77608065	     -6.86281104	      1.54987225	    -45.77854098	     19.26595808	     -2.35012971	     -3.71690538	    -47.23073838	    -12.02412555	    -24.86476374	    -28.83734685	     21.77108749	      1.58857536	      6.42436417
      0.97083333	     -6.40789686	     -1.15800114	     -4.85433966	     -0.29337430	      0.99856550	      0.32946135	      6.82387876	      9.92809079	      5.93052633	     -7.56003671	     -6.72747516	      1.59016699	    -45.78305650	     19.87289234	     -2.28076211	     -3.39612721	    -46.80971161	    -11.87288363	    -24.97655640	    -28.87760165	     21.78943015	      1.55159973	      6.52571274
      0.97500000	     -6.45941082	     -1.12259155	     -4.92719829	     -0.28856746	      0.99861411	      0.32958011	      6.43857752	      9.86392541	      6.05820741	     -7.34141598	     -6.59463495	      1.63836068	    -45.78793339	     20.48086265	     -2.22213785	     -3.06273631	    -46.37052818	    -11.74996792	    -25.04483516	    -28.91421480	     21.80911900	      1.53155895	      6.62462942
      0.97916667	     -6.52182901	     -1.09598844	     -4.99029240	     -0.28373735	      0.99861239	      0.32967142	      6.05387833	      9.80538456	      6.17542507	     -7.10582394	     -6.45170717	      1.69979973	    -45.79421237	     21.09107212	     -2.17207764	     -2.72134648	    -45.91085246	    -11.64971178	    -25.06961738	    -28.95242886	     21.84444867	      1.52360312	      6.73340230
      0.98333333	     -6.59095655	     -1.08026852	     -5.05533770	     -0.27894203	      0.99856810	      0.32971380	      5.67750131	      9.75300891	      6.29472557	     -6.86978143	     -6.32182311	      1.75585544	    -45.80049571	     21.70436654	     -2.12982268	     -2.36864262	    -45.43285757	    -11.57468810	    -25.05701716	    -28.98344272	     21.87094470	      1.53237176	      6.82929951
      0.98750000	     -6.65988671	     -1.07433251	     -5.10972231	     -0.27416610	      0.99847516	      0.32976647	      5.29384202	      9.71425710	      6.40449375	     -6.61432841	     -6.18263954	      1.81618837	    -45.80824500	     22.31453332	     -2.10095660	     -2.00721114	    -44.93814783	    -11.52189279	    -24.99827959	    -29.01359569	     21.91456859	      1.55149972	      6.93130877
      0.99166667	     -6.74584022	     -1.07678527	     -5.15947174	     -0.26939463	      0.99832006	      0.32977321	      4.92578551	      9.68015304	      6.50766390	     -6.35612631	     -6.04152818	      1.87787596	    -45.81815894	     22.93665520	     -2.07623502	     -1.62950308	    -44.42651342	    -11.49117423	    -24.89357406	    -29.04250534	     21.96750536	      1.58193755	      7.03738553
      0.99583333	     -6.83185384	     -1.08515325	     -5.21162505	     -0.26462070	      0.99812836	      0.32974538	      4.55135417	      9.64865271	      6.61332812	     -6.08656910	     -5.91335331	      1.93191889	    -45.82859213	     23.54681983	     -2.05539420	     -1.25653053	    -43.88972415	    -11.47219701	    -24.76798916	    -29.06516037	     22.01662934	      1.62766426	      7.13085396
      1.00000000	     -6.92323241	     -1.10215798	     -5.25851690	     -0.25985764	      0.99789648	      0.32972414	      4.18033234	      9.62757616	      6.71120652	     -5.80876128	     -5.78583489	      1.98216065	    -45.84099039	     24.15612703	     -2.04595869	     -0.87858128	    -43.33478109	    -11.47704234	    -24.60258602	    -29.08413957	     22.07276306	      1.68051160	      7.22469296
      1.00416667	     -7.01951153	     -1.12812751	     -5.30349650	     -0.25507986	      0.99762201	      0.32965069	      3.80525238	      9.61290605	      6.81642264	     -5.51974637	     -5.66836694	      2.02090403	    -45.85451096	     24.75897979	     -2.04054454	     -0.49382000	    -42.75789445	    -11.49463903	    -24.41799966	    -29.09754022	     22.12929366	      1.74742119	      7.31037306
      1.00833333	     -7.10894641	     -1.14646628	     -5.37158231	     -0.25035812	      0.99732459	      0.32957050	      3.43313504	      9.58406957	      6.92295199	     -5.24526715	     -5.57332078	      2.04386976	    -45.86588277	     25.33908628	     -2.03050614	     -0.10888903	    -42.14915721	    -11.50968316	    -24.25484688	    -29.10380616	     22.16676191	      1.81184993	      7.37500570
      1.01250000	     -7.21002601	     -1.19335997	     -5.38248487	     -0.24554736	      0.99696182	      0.32949858	      3.04080379	      9.59588006	      7.01445658	     -4.90992069	     -5.46124591	      2.07546187	    -45.88362175	     25.93643564	     -2.04665900	      0.27092288	    -41.54224535	    -11.59319349	    -23.97561471	    -29.10664769	     22.25460309	      1.88841145	      7.46336575
